<svg width="37" height="36" viewBox="0 0 37 36" fill="none" xmlns="http://www.w3.org/2000/svg">
<path d="M33.9129 14.9758C34.1145 13.6039 34.0484 12.1994 33.7145 10.8489C33.2734 9.06492 32.365 7.37536 30.9893 5.98023C29.6136 4.58511 27.9475 3.66388 26.1884 3.21655C24.8567 2.87792 23.4717 2.81085 22.1189 3.01535" stroke="#2E1D1D" stroke-width="2" stroke-linecap="round" stroke-linejoin="round"/>
<path d="M27.8582 14.326C28.0742 12.8564 27.6244 11.3055 26.5088 10.1742C25.3932 9.04283 23.8639 8.5867 22.4148 8.80576" stroke="#2E1D1D" stroke-width="2" stroke-linecap="round" stroke-linejoin="round"/>
<path d="M11.8219 5.41935C12.5433 5.41935 13.208 5.81613 13.5582 6.45581L15.2983 9.63465C15.6164 10.2157 15.6314 10.9184 15.3383 11.5128L13.5502 15.1395C13.5502 15.1395 14.0951 17.9802 16.3754 20.2927C18.6557 22.6052 21.4475 23.1482 21.4475 23.1482L25.0229 21.3353C25.6094 21.0379 26.3029 21.0533 26.876 21.3764L30.0208 23.1494C30.6509 23.5047 31.0417 24.1785 31.0417 24.9097L31.0417 27.7787C31.0417 30.3804 28.6553 32.2565 26.2385 31.3838C22.2442 29.9414 16.6418 27.4276 12.9908 23.7251C9.33983 20.0225 6.86097 14.3411 5.43868 10.2904C4.5781 7.83945 6.42812 5.41935 8.99359 5.41935L11.8219 5.41935Z" stroke="#2E1D1D" stroke-width="2" stroke-linejoin="round"/>
</svg>
